HIERARCHY
ROOT Hips
{
  OFFSET 0.382225 96.6805 0.598322
  CHANNELS 6 Xposition Yposition Zposition Zrotation Xrotation Yrotation
  JOINT Spine
  {
    OFFSET 10.8089 -0.851416 0
    CHANNELS 3 Zrotation Xrotation Yrotation
    JOINT Spine1
    {
      OFFSET 18.8753 3.80116 0
      CHANNELS 3 Zrotation Xrotation Yrotation
      JOINT Spine2
      {
        OFFSET 13.4073 0.420477 0
        CHANNELS 3 Zrotation Xrotation Yrotation
        JOINT LeftShoulder
        {
          OFFSET 11.8837 -2.73209 -3.78198
          CHANNELS 3 Zrotation Xrotation Yrotation
          JOINT LeftArm
          {
            OFFSET 15.7849 0 -2.35849e-005
            CHANNELS 3 Zrotation Xrotation Yrotation
            JOINT LeftForeArm
            {
              OFFSET 30.3399 0 0
              CHANNELS 3 Zrotation Xrotation Yrotation
              JOINT LeftHand
              {
                OFFSET 26.9751 0 2.45913e-005
                CHANNELS 3 Zrotation Xrotation Yrotation
                End Site
                {
                  OFFSET 8 0 0
                }
              }
            }
          }
        }
        JOINT RightShoulder
        {
          OFFSET 11.8838 -2.7321 3.782
          CHANNELS 3 Zrotation Xrotation Yrotation
          JOINT RightArm
          {
            OFFSET -15.7848 0 -1.07056e-005
            CHANNELS 3 Zrotation Xrotation Yrotation
            JOINT RightForeArm
            {
              OFFSET -30.34 1.02096e-005 -2.53607e-005
              CHANNELS 3 Zrotation Xrotation Yrotation
              JOINT RightHand
              {
                OFFSET -26.9752 2.07668e-005 0
                CHANNELS 3 Zrotation Xrotation Yrotation
                End Site
                {
                  OFFSET -8 0 0
                }
              }
            }
          }
        }
        JOINT Neck
        {
          OFFSET 16.5588 -0.355318 0
          CHANNELS 3 Zrotation Xrotation Yrotation
          JOINT Head
          {
            OFFSET 9.28361 0.364157 0
            CHANNELS 3 Zrotation Xrotation Yrotation
            End Site
            {
              OFFSET 0 0 0
            }
          }
        }
      }
    }
  }
  JOINT LeftUpLeg
  {
    OFFSET -1.44883 -0.531424 -9.00581
    CHANNELS 3 Zrotation Xrotation Yrotation
    JOINT LeftLeg
    {
      OFFSET -42.572 0.0788889 -0.011964
      CHANNELS 3 Zrotation Xrotation Yrotation
      JOINT LeftFoot
      {
        OFFSET -40.1967 0 0
        CHANNELS 3 Zrotation Xrotation Yrotation
				JOINT LeftToe
        {
          OFFSET -10.4538 -16.5779 0.0801563
          CHANNELS 3 Zrotation Xrotation Yrotation
          End Site
          {
            OFFSET -1.0 -1.0 0.0
          }
        }
      }
    }
  }
  JOINT RightUpLeg
  {
    OFFSET -1.44865 -0.531427 9.0058
    CHANNELS 3 Zrotation Xrotation Yrotation
    JOINT RightLeg
    {
      OFFSET 42.5723 -3.24776e-005 0
      CHANNELS 3 Zrotation Xrotation Yrotation
      JOINT RightFoot
      {
        OFFSET 40.1968 0 -1.14003e-005
        CHANNELS 3 Zrotation Xrotation Yrotation
				JOINT RightToe
        {
          OFFSET 10.4538 16.5778 -0.0801573
          CHANNELS 3 Zrotation Xrotation Yrotation
          End Site
          {
            OFFSET -1.0 -1.0 0.0
          }
        }
      }
    }
  }
}
MOTION
Frames:	19
Frame Time:	0.0333333
-8.11748 48.6191 -164.485 19.7291 -65.9854 -104.159 -76.8618 -27.7229 -1.71197 13.8952 0.00819506 0.0162282 2.7794 1.93418e-006 1.65929e-005 -4.13307 -1.06552 71.6856 -54.1684 -6.64591 20.863 -57.617 -0.814394 -16.0346 -67.0176 5.73992 -74.7216 -179.81 10.1061 85.5653 -10.2918 -27.6972 56.652 -59.7234 -9.17244 -4.4409 -89.1809 -7.97585 -66.6752 -23.508 4.63459e-006 -5.90926e-006 66.3787 -29.9462 3.44344 48.9068 10.8285 -26.7001 -108.725 1.63337 -3.70391 12.8645 -18.3249 16.318 -90 0 0 -118.453 18.9073 -20.6245 -111.762 4.84626 -5.3343 -10.2427 -46.2242 29.3462 -90 0 0
-8.12219 49.3053 -164.201 19.3618 -67.4509 -105.053 -76.8997 -30.4124 -0.322921 13.9961 0.00329172 0.00650015 2.7794 1.93418e-006 1.65929e-005 -4.4335 -1.8756 70.6969 -54.2678 -6.27785 21.6743 -54.6513 -2.17167 -15.1892 -67.6871 6.62393 -74.3851 -179.823 10.3993 85.4199 -16.4904 -30.5054 58.8772 -58.0477 -9.16451 -4.28802 -83.9155 -4.26909 -75.7745 -23.508 4.63459e-006 -5.90926e-006 67.5633 -31.4867 3.01731 52.4591 10.7402 -27.9034 -109.036 1.57563 -3.70398 17.6057 -17.3502 18.4817 -90 0 0 -119.801 18.9564 -21.8622 -111.334 4.85696 -5.3629 -10.5874 -45.1624 29.1101 -90 0 0
-8.10302 49.9968 -164.164 18.2403 -68.9428 -106.635 -76.7967 -33.7042 1.19135 14.102 -0.0018788 -0.00369586 2.7794 1.93418e-006 1.65929e-005 -4.55878 -1.8733 69.5271 -54.3542 -5.37126 22.3932 -51.6568 -3.43809 -14.3077 -68.451 7.34514 -74.9627 -179.79 10.3709 85.3066 -21.441 -36.2647 63.4885 -55.5014 -9.1357 -4.0618 -79.0407 -0.822412 -75.486 -23.508 4.63459e-006 -5.90926e-006 67.173 -33.3386 1.51589 57.8648 12.275 -29.7317 -110.008 1.51927 -3.67702 22.6113 -16.7232 20.9307 -90 0 0 -121.029 18.937 -22.89 -111.02 4.86813 -5.38405 -10.9089 -43.7791 29.1006 -90 0 0
-7.85329 50.6798 -164.363 16.5017 -70.5315 -108.571 -76.592 -35.8386 2.69276 14.1619 -0.0058885 -0.00947347 2.7794 1.93418e-006 1.65929e-005 -4.81791 -2.35144 68.4218 -55.3618 -4.33035 22.603 -47.7894 -5.02118 -13.0563 -69.3461 8.12463 -77.2862 -179.787 10.5474 85.1816 -26.8725 -35.1013 66.4419 -62.0334 -8.99813 -4.74183 -70.7034 -4.67797 -72.5401 -23.508 4.63459e-006 -5.90926e-006 66.1414 -35.8744 0.480982 65.2136 15.3911 -31.8756 -111.764 1.60836 -3.6154 26.1905 -16.5767 20.3402 -90 0 0 -122.109 18.7915 -23.8074 -111.034 4.90418 -5.38676 -10.4948 -42.7185 29.7756 -90 0 0
-7.36431 51.3218 -164.696 14.2863 -72.3688 -110.704 -76.5974 -36.7712 4.01924 14.2475 -0.00900475 -0.0177258 2.7794 1.93418e-006 1.65929e-005 -5.0479 -2.70414 67.3945 -58.487 -3.93753 22.0753 -41.8431 -7.24528 -10.96 -71.021 8.95385 -80.4678 -179.51 8.25302 85.5813 -28.4408 -30.9566 66.4723 -69.9463 -9.11275 -5.37651 -62.8013 -12.8592 -75.6825 -23.508 4.63459e-006 -5.90926e-006 64.773 -38.6238 0.00308589 73.9105 19.7336 -34.1047 -113.078 1.49387 -3.59498 27.9169 -17.979 21.0284 -90 0 0 -123.372 18.2532 -24.6892 -111.593 4.98265 -5.35945 -7.53649 -42.3208 32.9354 -90 0 0
-6.6125 51.8338 -165.165 11.2934 -73.8917 -113.147 -76.5755 -35.1931 4.97331 14.2801 -0.0106015 -0.0208585 2.7794 1.93418e-006 1.65929e-005 -4.94221 -2.20683 66.9021 -66.6266 -3.84721 18.9201 -30.9307 -10.6449 -6.621 -75.0754 10.0725 -84.5881 -178.775 4.61685 84.4754 -33.3226 -41.0869 60.9147 -44.3824 -8.941 -3.06139 -75.8829 7.91237 -79.9185 -23.508 4.63459e-006 -5.90926e-006 66.7795 -40.315 2.4241 83.5906 25.0021 -36.0719 -113.026 1.4033 -3.58085 27.3946 -20.2481 21.4114 -90 0 0 -124.081 17.35 -25.1265 -113.026 5.17651 -5.28267 -2.40563 -43.0405 36.3311 -90 0 0
-5.59766 52.1907 -165.7 8.25166 -74.983 -115.518 -75.4794 -32.5076 6.3611 14.0284 0.00172028 0.00338689 2.7794 1.93418e-006 1.65929e-005 -4.42937 -0.463935 66.1573 -69.8106 -3.25284 18.6401 -35.308 -9.40043 -8.41518 -70.0307 -5.46463 -84.7331 -178.389 2.53792 83.4797 -25.4396 -39.6753 65.0277 -42.5134 -8.88488 -2.90241 -78.143 5.21267 -77.2501 -23.508 4.63459e-006 -5.90926e-006 68.6922 -40.2868 4.91219 92.2075 30.4113 -37.2257 -111.661 1.05885 -3.65886 30.0275 -22.4699 24.9718 -90 0 0 -123.866 16.4652 -25.6679 -114.961 5.44785 -5.16843 0.486601 -43.1564 37.1277 -90 0 0
-4.43852 52.373 -165.976 3.00664 -76.5473 -119.105 -74.6435 -28.6963 7.31634 14.0312 0.00157703 0.00312 2.7794 1.93418e-006 1.65929e-005 -4.03911 0.582487 66.8213 -68.6177 -2.69449 16.6734 -44.7456 -6.19309 -12.007 -57.2962 -35.3604 -73.8406 -178.305 0.439847 84.9428 -20.5345 -36.2763 64.07 -43.4755 -8.90807 -2.99007 -76.7985 -0.161816 -77.982 -23.508 4.63459e-006 -5.90926e-006 71.1466 -38.9926 9.29941 97.1744 34.1942 -36.44 -108.821 0.629619 -3.78684 31.8855 -25.1224 29.0326 -90 0 0 -124.61 16.965 -25.642 -117.135 5.77422 -5.03698 1.85602 -42.0019 34.5542 -90 0 0
-3.25305 52.4132 -165.731 -9.96944 -78.1191 -129.505 -73.6046 -24.0827 9.31834 14.2533 -0.00928749 -0.0182792 2.7794 1.93418e-006 1.65929e-005 -4.13338 0.0454179 67.9951 -72.4339 -4.0858 9.90396 -38.3153 -8.44703 -9.61753 -34.9484 -55.444 -38.0745 -177.894 -3.3112 86.1131 -12.4101 -29.0199 63.2779 -51.1953 -9.08913 -3.66588 -71.1973 -13.0522 -82.9874 -23.508 4.63459e-006 -5.90926e-006 73.6144 -38.8602 13.9793 99.6202 35.2388 -34.1349 -108.673 0.963247 -3.81613 32.2245 -28.021 21.6046 -90 0 0 -127.02 19.2465 -24.4695 -118.492 6.03335 -4.96161 -0.226309 -39.1824 27.6069 -90 0 0
-2.10901 52.501 -164.773 -29.9686 -78.3228 -146.389 -72.0939 -18.7337 12.0087 14.4164 -0.0173163 -0.0339562 2.7794 1.93418e-006 1.65929e-005 -4.4232 -1.1526 68.8266 -83.3317 -3.75554 0.130652 -18.1101 -13.4146 -0.957094 -7.27675 -66.1949 -2.16434 -177.54 -6.08792 86.5602 -4.70003 -21.5405 60.5567 -62.6506 -9.17462 -4.70868 -51.5713 -32.5994 -86.0226 -23.508 4.63459e-006 -5.90926e-006 77.9994 -38.7549 19.8981 97.4978 34.5396 -29.5844 -108.997 1.5285 -3.82212 31.4376 -28.5391 10.5029 -90 0 0 -131.028 22.6836 -22.3077 -118.526 6.14642 -4.9818 -4.21958 -34.2107 18.7992 -90 0 0
-1.2039 52.9137 -162.886 -47.7948 -77.6088 -162.066 -69.6667 -16.1531 14.9861 14.5922 -0.0260275 -0.0508318 2.7794 1.93418e-006 1.65929e-005 -4.19941 -0.3729 68.8036 -84.4335 -2.04192 -0.484377 -19.9577 -13.0973 -1.80379 -2.52451 -60.2774 2.19073 -177.544 -6.04087 86.6515 -6.97826 -20.416 55.3093 -59.9392 -9.17292 -4.46064 -18.5947 -48.4601 -63.8777 -23.508 4.63459e-006 -5.90926e-006 78.8078 -39.4236 22.3907 91.3531 33.1974 -23.8871 -109.152 1.94493 -3.81984 30.6282 -22.5092 2.45735 -90 0 0 -136.634 24.9678 -20.8342 -116.977 6.02117 -5.11199 -6.67973 -29.4653 13.6407 -90 0 0
-0.722793 53.6837 -160.291 -60.0792 -77.1267 -173.534 -66.2077 -15.5433 17.7712 14.3028 -0.011719 -0.0230435 2.7794 1.93418e-006 1.65929e-005 -3.82158 0.67726 70.0732 -83.9088 -0.349099 0.647107 -24.6064 -12.176 -3.89396 -12.1027 -57.2986 -8.07824 -177.963 -2.82937 86.3558 -14.672 -29.3901 53.0277 -32.8479 -8.53329 -2.09106 11.7182 -56.0304 3.89179 -23.508 4.63459e-006 -5.90926e-006 76.1838 -41.072 21.7615 84.3309 30.2608 -17.3797 -109.59 1.91677 -3.7995 32.9158 -16.0476 4.60559 -90 0 0 -142.518 25.7604 -21.2333 -113.88 5.65973 -5.32942 -8.82682 -27.3813 12.3969 -90 0 0
-0.649967 55.1069 -157.068 -71.1063 -76.6103 174.529 -62.7985 -17.1076 21.3089 14.0849 -0.00103986 -0.00208062 2.7794 1.93418e-006 1.65929e-005 -3.32394 2.34592 72.0576 -81.0789 -1.34664 4.28011 -33.4021 -9.95501 -7.65432 -24.799 -58.2676 -21.6372 -178.54 2.46089 84.7867 -20.7886 -34.0526 58.295 -20.7575 -7.90815 -1.18285 8.9983 -57.0049 20.8743 -23.508 4.63459e-006 -5.90926e-006 72.4184 -42.9821 19.268 75.3676 28.3992 -10.1239 -108.979 1.80028 -3.82147 37.1541 -10.9419 7.57924 -90 0 0 -148.837 25.423 -23.1106 -109.726 5.16326 -5.58471 -10.2508 -28.2436 9.58652 -90 0 0
-1.25531 56.5534 -153.597 -75.4974 -74.7747 170.571 -58.5508 -15.4241 24.4757 13.3921 0.0323898 0.0649004 2.7794 1.93418e-006 1.65929e-005 -2.84545 4.54676 75.2361 -76.4944 -3.80796 10.4905 -45.0603 -6.07555 -12.1175 -39.2991 -63.6079 -35.7817 -178.271 7.75611 80.1929 -20.6088 -26.2762 70.2214 -37.1387 -8.70752 -2.44223 -4.39914 -57.1322 5.3867 -23.508 4.63459e-006 -5.90926e-006 71.6882 -43.6523 19.0885 68.6986 26.0582 -6.33972 -108.507 1.70919 -3.83942 41.8154 -6.35326 9.59572 -90 0 0 -157.408 26.4435 -20.934 -104.677 4.61238 -5.85956 -5.51039 -30.0324 3.28774 -90 0 0
-2.63928 58.0473 -150.67 -72.9129 -72.4558 175.128 -53.6807 -11.8499 26.1456 12.993 0.051272 0.103648 2.7794 1.93418e-006 1.65929e-005 -2.47592 7.98075 78.3641 -71.1885 -4.52557 17.5279 -55.9421 -1.57196 -15.5755 -53.2486 -69.0724 -48.5426 -177.254 9.10892 75.782 -20.2157 -17.9024 79.8372 -53.7811 -9.12621 -3.89956 3.25345 -59.2595 9.49298 -23.508 4.63459e-006 -5.90926e-006 72.6947 -43.9491 20.0681 65.2905 23.3676 -6.52241 -107.712 1.53318 -3.8822 45.4286 -3.00177 11.0245 -90 0 0 -167.902 28.4174 -12.5216 -98.7601 4.07321 -6.10439 7.17205 -26.5729 -7.63751 -90 0 0
-4.60334 60.385 -148.223 -68.8764 -71.3251 179.508 -49.1115 -10.8126 28.3127 12.8792 0.0566166 0.114733 2.7794 1.93418e-006 1.65929e-005 -2.2857 11.2589 79.4798 -66.0889 -4.32643 23.6802 -63.9215 2.19291 -17.5811 -53.7675 -70.0249 -47.9583 -177.03 10.0153 74.9594 -25.0642 -13.6813 82.7012 -66.8977 -9.15377 -5.09658 11.2652 -60.5124 16.7152 -23.508 4.63459e-006 -5.90926e-006 72.2587 -45.4324 18.4751 61.042 20.9835 -4.87787 -104.186 1.19255 -3.98348 47.1085 -0.250443 12.9588 -90 0 0 -174.393 29.2357 -7.29504 -90.1589 2.89459 -6.21563 11.6388 -19.9912 -10.4837 -90 0 0
-6.94993 63.525 -146.088 -65.4781 -71.0443 -177.018 -45.8148 -9.56954 30.0121 12.6245 0.0684808 0.139554 2.7794 1.93418e-006 1.65929e-005 -2.33187 13.1293 80.7707 -63.7377 -2.39403 25.9531 -65.9494 3.19948 -18.0097 -54.5246 -71.5067 -48.3341 -177.02 10.5269 74.933 -28.9533 -11.8948 82.7934 -79.6727 -8.922 -6.23927 7.25142 -58.7754 13.4396 -23.508 4.63459e-006 -5.90926e-006 72.5218 -47.064 19.0482 56.0306 18.5996 -3.00819 -98.446 0.599012 -4.11455 47.0185 1.77187 14.7249 -90 0 0 -175.845 29.3733 -5.96611 -82.0003 1.48946 -6.10169 4.37336 -14.6102 -4.26171 -90 0 0
-9.47616 67.1011 -144.381 -63.2246 -71.4288 -173.656 -44.1877 -7.73074 29.9978 12.8879 0.0561993 0.113875 2.7794 1.93418e-006 1.65929e-005 -2.46705 13.3321 81.8417 -63.5919 -1.31909 25.2034 -64.855 2.65402 -17.7826 -41.0285 -72.8156 -36.2356 -176.974 10.6874 74.7721 -29.0482 -12.1534 80.1729 -90.8259 -8.51892 -7.17363 5.83058 -60.4991 12.8936 -23.508 4.63459e-006 -5.90926e-006 73.3617 -48.0888 21.9046 51.146 15.7013 -2.26945 -91.5278 -0.049351 -4.16822 45.416 2.92566 16.1554 -90 0 0 -174.536 28.7908 -5.95066 -73.6301 -0.0564082 -5.76533 -15.1866 -12.281 8.00677 -90 0 0
-12.2587 70.8055 -143.142 -60.908 -73.1168 -169.68 -43.047 -7.56264 28.7035 13.1921 0.0418832 0.0843001 2.7794 1.93418e-006 1.65929e-005 -2.46504 11.9789 81.4891 -62.8996 -1.94558 22.8048 -65.9096 3.17955 -18.0016 -31.3571 -71.0284 -26.0194 -176.946 10.1157 74.6617 -24.1652 -13.5542 76.2371 -99.4444 -8.08854 -7.83167 6.4181 -62.1752 13.8973 -23.508 4.63459e-006 -5.90926e-006 73.1375 -50.0288 22.4297 46.3681 12.0385 -2.13937 -83.6263 -0.860422 -4.11059 42.5277 3.21674 17.5727 -90 0 0 -172.123 28.8518 -4.96392 -67.5055 -1.07081 -5.39944 -29.516 -15.5185 17.3781 -90 0 0
